<?xml version="1.0" standalone="no"?>
<!DOCTYPE svg PUBLIC "-//W3C//DTD SVG 20010904//EN"
 "http://www.w3.org/TR/2001/REC-SVG-20010904/DTD/svg10.dtd">
<svg version="1.0" xmlns="http://www.w3.org/2000/svg"
 width="1200.000000pt" height="1200.000000pt" viewBox="0 0 1200.000000 1200.000000"
 preserveAspectRatio="xMidYMid meet">

<g transform="translate(0.000000,1200.000000) scale(0.100000,-0.100000)"
fill="#000000" stroke="none">
<path d="M6129 11926 c-1 -9 -2 -21 -3 -27 -1 -6 31 -22 69 -35 100 -33 125
-64 125 -150 0 -98 -284 -1643 -315 -1711 -32 -71 -64 -87 -166 -81 -76 5 -78
4 -84 -20 -3 -13 -5 -26 -3 -27 2 -2 194 -38 428 -80 463 -85 583 -97 745 -76
215 29 388 113 535 262 178 178 266 373 316 694 21 140 15 343 -15 460 -59
230 -213 416 -436 528 -165 82 -240 101 -790 202 -198 36 -370 68 -382 72 -17
4 -23 1 -24 -11z m743 -181 c345 -72 539 -232 614 -505 30 -108 25 -393 -10
-582 -42 -233 -88 -382 -164 -533 -36 -71 -63 -107 -126 -170 -134 -134 -253
-177 -481 -177 -193 1 -322 31 -375 86 -48 53 -45 79 115 951 106 580 153 814
170 852 41 92 102 110 257 78z"/>
<path d="M3935 11505 c-321 -98 -340 -105 -337 -126 4 -32 5 -32 62 -20 116
25 167 5 209 -82 29 -61 481 -1561 491 -1631 12 -79 -4 -116 -67 -155 -54 -35
-70 -37 -93 -16 -14 13 -21 13 -55 -5 -72 -37 -150 -21 -306 63 -46 24 -174
90 -284 147 -110 56 -245 126 -300 155 -100 53 -253 131 -550 285 -88 46 -205
106 -260 135 -283 148 -305 158 -320 145 -23 -19 -43 43 178 -560 384 -1048
476 -1300 486 -1335 18 -64 13 -184 -8 -231 -19 -41 -19 -42 2 -62 l20 -21 87
82 c48 45 137 125 198 177 61 52 113 101 117 109 3 8 -1 21 -9 29 -13 13 -22
10 -72 -23 -141 -94 -235 -63 -318 106 -50 102 -166 422 -158 435 10 17 501
448 522 457 16 8 113 -37 245 -113 17 -10 80 -44 140 -75 247 -130 268 -169
159 -293 l-47 -54 22 -21 21 -21 73 70 c77 75 206 191 326 293 48 41 76 59 81
51 5 -8 224 54 734 208 400 121 730 222 733 225 3 3 -8 39 -25 79 -34 83 -110
317 -138 426 -17 68 -20 73 -44 70 -30 -4 -31 -19 -10 -200 28 -239 -27 -352
-214 -438 -86 -40 -359 -124 -438 -135 -66 -9 -108 13 -141 73 -14 26 -133
400 -264 832 -207 685 -238 794 -238 852 0 81 17 104 112 145 51 22 63 32 61
48 -2 12 -11 21 -23 22 -11 0 -173 -45 -360 -102z m-1563 -1504 c29 -15 103
-54 163 -86 61 -32 146 -77 190 -100 44 -23 125 -66 180 -95 155 -81 205 -111
205 -120 0 -4 -108 -103 -241 -220 -157 -138 -244 -209 -250 -203 -9 9 -165
420 -244 643 -13 36 -35 95 -49 131 -21 57 -24 79 -10 79 2 0 27 -13 56 -29z"/>
<path d="M8960 11089 c-10 -18 -5 -28 44 -79 30 -31 58 -70 62 -85 10 -39 -14
-100 -65 -169 -119 -162 -949 -1227 -990 -1270 -81 -86 -131 -91 -234 -26 -56
35 -59 36 -74 11 -11 -17 43 -61 583 -480 327 -254 601 -464 608 -467 9 -3 28
18 52 58 36 58 203 285 274 370 l31 37 -26 17 c-25 16 -25 16 -96 -51 -267
-251 -388 -248 -729 17 -211 166 -237 207 -186 306 25 47 490 654 507 660 23
9 213 -156 239 -208 50 -98 31 -180 -81 -357 -12 -20 -11 -25 8 -44 11 -12 25
-19 31 -16 5 4 40 53 78 109 68 103 325 438 391 511 33 37 34 40 17 58 -9 10
-21 19 -26 19 -6 0 -46 -34 -90 -75 -45 -41 -101 -84 -126 -96 -58 -29 -133
-29 -192 0 -69 32 -212 149 -203 165 39 64 496 635 527 657 76 56 123 39 336
-125 151 -116 216 -180 247 -240 22 -44 25 -59 20 -125 -5 -82 -18 -118 -93
-252 l-47 -82 24 -20 24 -19 20 28 c76 106 132 176 217 273 l98 110 -243 189
c-670 521 -917 712 -921 712 -3 0 -10 -9 -16 -21z"/>
<path d="M10726 9437 c-16 -12 -16 -16 10 -65 15 -29 29 -75 32 -102 5 -50 4
-51 -49 -103 -38 -37 -255 -180 -720 -474 -366 -232 -686 -432 -710 -445 -30
-16 -61 -23 -97 -23 -49 0 -56 3 -90 40 -21 22 -46 53 -58 68 -19 28 -20 28
-41 10 l-22 -18 194 -304 c107 -167 198 -308 204 -314 7 -7 16 -5 29 6 18 17
18 19 -15 83 -18 37 -33 77 -33 91 0 32 22 72 57 105 34 32 1390 893 1448 919
22 10 58 19 80 19 37 0 46 -6 105 -69 57 -60 68 -67 83 -56 9 7 17 15 17 18 0
3 -64 106 -141 229 -78 123 -166 262 -196 311 -30 48 -58 87 -62 87 -4 0 -15
-6 -25 -13z"/>
<path d="M880 9143 c-8 -27 -46 -142 -87 -258 -40 -115 -71 -216 -68 -222 2
-7 13 -13 24 -13 15 0 28 16 48 56 15 30 44 71 65 90 34 30 44 34 92 34 66 0
158 -44 281 -135 266 -196 922 -690 935 -702 13 -14 -23 -15 -330 -9 -648 12
-1095 25 -1150 36 -47 9 -90 46 -90 79 0 23 17 111 25 133 5 13 1 20 -16 27
-13 5 -28 5 -32 1 -5 -4 -39 -99 -76 -211 -38 -112 -85 -248 -105 -303 -30
-79 -35 -100 -24 -107 23 -15 38 -10 73 25 19 19 52 40 72 45 21 6 118 11 215
11 l177 0 465 -347 c255 -192 465 -352 465 -357 1 -9 -321 -6 -1144 10 -412 8
-441 17 -433 141 3 56 2 58 -22 61 -25 3 -28 -4 -88 -185 -35 -103 -81 -235
-102 -292 -22 -58 -37 -108 -33 -112 5 -4 18 -10 30 -13 16 -5 23 -2 28 13 10
33 83 88 133 101 47 12 1165 8 1793 -6 224 -5 257 -4 268 10 7 9 11 22 8 29
-3 7 -79 67 -169 134 -89 66 -323 238 -518 383 -195 145 -401 297 -457 339
-57 41 -98 78 -93 81 6 4 360 5 786 2 809 -5 793 -6 794 34 0 6 -21 26 -47 44
-27 19 -205 151 -398 294 -192 142 -433 320 -534 395 -100 75 -267 198 -370
274 -102 76 -207 160 -233 188 -50 52 -88 136 -88 194 0 24 -6 38 -19 45 -32
17 -38 12 -51 -37z"/>
<path d="M11572 7962 c-22 -3 -22 -6 -16 -76 9 -100 -10 -140 -80 -172 -60
-27 -1541 -302 -1671 -310 -104 -7 -138 10 -177 87 -15 30 -28 65 -30 79 -2
20 -8 24 -27 22 -14 -1 -27 -4 -29 -7 -4 -3 75 -448 93 -532 4 -16 13 -23 29
-23 24 0 24 2 28 106 l3 106 37 33 c21 20 59 40 90 49 76 22 1586 298 1611
294 15 -2 -177 -190 -796 -776 -711 -673 -817 -777 -817 -802 0 -16 4 -31 8
-34 4 -2 399 67 877 155 479 88 904 163 946 166 129 10 172 -16 212 -128 19
-52 27 -63 43 -61 32 6 35 16 20 83 -22 93 -76 390 -76 416 0 12 -4 33 -9 46
-8 19 -15 23 -35 20 -25 -5 -25 -6 -19 -83 5 -68 3 -84 -16 -124 -18 -37 -32
-50 -74 -69 -29 -13 -72 -29 -97 -35 -98 -24 -1255 -233 -1273 -230 -23 4 29
55 623 608 168 156 339 316 380 355 41 40 142 134 223 210 103 96 146 142 142
154 -10 33 -46 220 -66 341 -11 69 -23 127 -27 131 -4 3 -17 3 -30 1z"/>
<path d="M590 5679 c-108 -27 -386 -79 -425 -79 -47 0 -65 -9 -65 -32 0 -17
325 -1565 335 -1595 3 -8 27 -4 82 13 105 33 340 90 436 105 75 11 77 13 77
40 l0 27 -197 -1 c-187 -2 -201 -1 -248 21 -114 53 -165 140 -215 369 -11 53
-17 100 -13 104 17 17 1704 369 1777 371 118 3 157 -30 198 -169 19 -63 25
-73 45 -73 21 0 27 8 24 35 -4 40 -172 810 -178 816 -5 4 -18 3 -30 -1 -19 -8
-20 -13 -12 -47 16 -70 11 -165 -11 -201 -22 -36 -67 -67 -120 -82 -53 -15
-1725 -370 -1743 -370 -18 0 -27 28 -52 164 -21 113 -17 236 10 291 42 86 148
155 340 221 93 32 106 41 99 72 -7 26 -15 26 -114 1z"/>
<path d="M9786 5564 c-12 -31 -5 -41 44 -72 75 -47 71 -64 -41 -187 -95 -106
-140 -182 -178 -307 -78 -257 -34 -497 118 -641 130 -124 339 -181 503 -138
163 42 253 105 568 397 191 176 249 222 331 260 57 26 75 29 159 29 82 0 103
-4 151 -26 140 -66 208 -197 188 -363 -17 -137 -111 -276 -224 -331 -107 -52
-267 -75 -380 -56 -72 13 -83 9 -87 -28 -3 -22 7 -26 197 -81 110 -32 237 -72
283 -88 l83 -30 10 24 c13 37 13 37 -37 63 -87 47 -82 79 29 188 94 92 124
135 159 235 42 120 55 252 35 353 -32 153 -114 268 -238 330 -118 61 -276 80
-393 50 -134 -35 -230 -100 -476 -325 -274 -251 -382 -319 -514 -328 -187 -11
-359 92 -406 246 -36 116 -23 227 42 356 98 195 309 279 613 247 101 -11 110
-11 122 5 7 10 13 23 13 29 0 6 -93 37 -207 69 -115 33 -263 76 -329 97 -67
22 -124 39 -127 39 -3 0 -8 -7 -11 -16z"/>
<path d="M9490 4322 c0 -5 -50 -69 -110 -143 -236 -286 -232 -280 -219 -295
17 -21 26 -18 82 31 104 90 171 95 258 17 61 -55 85 -90 208 -311 77 -139 89
-166 78 -180 -57 -80 -442 -531 -452 -531 -19 0 -522 178 -566 201 -20 10 -47
31 -59 46 -29 37 -22 75 24 148 20 30 36 59 36 63 0 8 -40 35 -45 30 -1 -2
-31 -39 -66 -83 -34 -44 -119 -147 -188 -229 -69 -81 -139 -164 -155 -183 -28
-33 -29 -36 -12 -49 22 -16 35 -10 -251 -114 -112 -40 -203 -78 -203 -84 1
-34 15 -38 99 -21 77 16 86 16 126 1 49 -19 82 -61 119 -151 54 -133 529
-1442 533 -1470 4 -20 2 -27 -5 -20 -5 6 -148 168 -317 360 -169 193 -371 422
-449 510 -78 88 -236 267 -350 398 -115 130 -212 237 -215 237 -4 0 -14 -6
-23 -12 -14 -12 -16 -92 -22 -703 -3 -379 -6 -829 -7 -999 0 -253 -2 -307 -13
-295 -22 24 -569 1541 -574 1591 -2 27 1 61 8 78 13 31 86 84 133 95 16 4 27
14 27 24 -1 47 -8 46 -351 -79 -183 -67 -341 -126 -350 -131 -11 -6 -15 -16
-12 -30 6 -23 4 -23 113 0 87 19 128 -5 177 -104 35 -69 556 -1507 569 -1570
21 -98 2 -139 -85 -183 -32 -16 -62 -32 -68 -35 -15 -9 -4 -47 13 -47 17 0
457 159 465 168 6 6 18 1155 19 1661 0 149 1 162 16 150 9 -7 246 -281 527
-609 281 -327 542 -631 580 -675 38 -44 73 -81 78 -83 5 -2 55 14 111 36 57
23 165 62 241 88 136 46 138 47 132 73 -4 14 -8 27 -10 29 -2 2 -27 -4 -56
-12 -73 -22 -131 -21 -162 4 -14 12 -40 49 -56 83 -49 100 -560 1515 -570
1575 -15 95 10 143 96 187 32 17 60 31 62 32 2 1 -2 16 -7 33 -10 28 -9 32 14
40 78 30 91 27 1114 -316 898 -300 974 -324 989 -309 15 15 13 22 -23 88 -39
72 -407 738 -733 1325 -96 172 -183 337 -194 365 -30 75 -39 143 -27 210 9 52
8 60 -8 72 -22 16 -34 19 -34 7z m564 -1321 c119 -214 216 -394 216 -400 0
-15 -7 -14 -86 13 -38 13 -195 68 -349 121 -154 53 -311 107 -350 121 -38 13
-71 24 -72 24 -19 0 397 510 416 510 4 0 106 -175 225 -389z"/>
<path d="M2587 4296 c-16 -13 -16 -17 13 -77 43 -91 41 -138 -7 -189 -39 -40
-1363 -882 -1458 -926 -74 -35 -116 -32 -165 12 -22 20 -49 51 -61 70 -23 38
-26 39 -52 19 -18 -13 -7 -32 166 -307 101 -161 189 -303 196 -315 13 -26 33
-29 51 -9 9 12 5 28 -20 82 -45 93 -39 133 28 194 54 49 1325 855 1431 907 37
18 76 33 89 33 46 0 104 -45 153 -119 13 -21 18 -22 37 -12 12 6 22 15 22 20
0 5 -76 127 -168 273 -93 145 -181 285 -196 311 -30 51 -33 53 -59 33z"/>
<path d="M3035 3404 c-64 -98 -153 -218 -232 -311 -29 -34 -53 -67 -53 -73 0
-6 11 -16 25 -22 23 -11 30 -6 103 64 137 132 212 172 322 172 114 -1 186 -39
415 -219 180 -142 208 -187 170 -278 -11 -26 -314 -426 -511 -676 -4 -5 -174
128 -203 159 -47 50 -63 98 -59 170 3 66 21 110 94 237 18 31 18 32 0 52 -25
27 -32 21 -109 -94 -61 -92 -197 -270 -341 -449 -63 -79 -77 -102 -69 -115 18
-29 42 -23 88 23 140 140 235 175 343 126 40 -18 212 -145 212 -157 0 -15
-485 -625 -521 -657 -82 -70 -128 -55 -346 115 -223 173 -273 237 -273 352 0
66 26 135 97 261 34 60 43 84 36 95 -20 31 -47 23 -75 -21 -38 -60 -125 -168
-215 -267 -56 -61 -74 -87 -67 -97 15 -23 1138 -894 1148 -891 5 2 14 10 19
18 7 11 -5 29 -47 73 -71 74 -79 108 -44 180 19 39 545 724 1017 1324 37 46
109 92 145 92 27 0 90 -31 148 -72 14 -10 20 -9 32 7 9 11 15 22 15 25 0 4
-1141 896 -1188 928 -17 12 -24 6 -76 -74z"/>
<path d="M4296 2485 c-11 -29 -7 -34 47 -68 87 -56 126 -110 201 -279 38 -84
88 -196 112 -248 89 -199 307 -686 320 -717 l14 -31 -321 -279 c-177 -153
-340 -290 -363 -306 -57 -38 -136 -66 -204 -73 -95 -9 -102 -12 -102 -39 0
-17 7 -26 23 -30 181 -39 539 -105 547 -100 16 10 11 45 -7 51 -96 30 -137 67
-135 119 3 85 58 147 363 409 201 173 261 219 307 237 64 24 208 36 232 20 13
-9 5 -58 -58 -373 -101 -496 -104 -503 -259 -497 -88 4 -88 4 -91 -21 l-3 -25
353 -73 c194 -41 360 -74 368 -75 10 -1 15 7 15 28 0 26 -4 30 -38 37 -53 11
-114 44 -133 72 -33 52 -22 123 144 936 89 432 168 804 176 827 34 98 66 117
183 112 77 -4 78 -4 81 21 l3 25 -343 68 c-189 38 -355 71 -370 74 -26 5 -28
3 -28 -26 0 -24 4 -31 20 -31 34 0 124 -40 147 -65 44 -49 41 -82 -47 -516
-45 -222 -84 -412 -86 -421 -7 -24 -29 -22 -89 6 -59 27 -95 66 -134 145 -44
87 -351 859 -351 882 0 47 17 59 85 59 64 0 65 0 65 28 l0 27 -293 58 c-160
33 -304 61 -318 64 -18 3 -28 0 -33 -12z"/>
</g>
</svg>
