<?xml version="1.0" standalone="no"?>
<!DOCTYPE svg PUBLIC "-//W3C//DTD SVG 20010904//EN"
 "http://www.w3.org/TR/2001/REC-SVG-20010904/DTD/svg10.dtd">
<svg version="1.0" xmlns="http://www.w3.org/2000/svg"
 width="1200.000000pt" height="1200.000000pt" viewBox="0 0 1200.000000 1200.000000"
 preserveAspectRatio="xMidYMid meet">

<g transform="translate(0.000000,1200.000000) scale(0.100000,-0.100000)"
fill="#595959" stroke="none">
<path d="M5925 11840 c-33 -4 -102 -11 -152 -15 -77 -6 -93 -10 -93 -23 0 -13
11 -17 51 -19 65 -3 95 -23 109 -70 10 -38 84 -812 77 -819 -2 -2 -661 838
-687 877 -3 4 -41 4 -85 -1 -44 -5 -110 -12 -147 -15 -49 -5 -68 -11 -68 -21
0 -10 12 -14 38 -14 47 0 84 -19 99 -50 12 -26 93 -881 93 -986 0 -74 -22
-108 -81 -124 -23 -6 -39 -17 -39 -25 0 -18 -10 -18 170 0 80 8 148 15 153 15
4 0 7 7 7 15 0 11 -11 15 -39 15 -22 0 -51 4 -65 10 -53 20 -55 28 -102 542
-24 266 -43 490 -42 498 3 11 403 -488 767 -957 58 -75 91 -92 91 -49 0 13
-20 248 -45 522 -25 275 -45 519 -45 544 0 67 17 92 75 112 28 9 50 22 50 29
0 17 -15 19 -90 9z"/>
<path d="M6657 11779 c-161 -23 -256 -145 -245 -313 9 -127 52 -187 268 -367
172 -145 214 -203 213 -304 -1 -142 -85 -228 -223 -228 -175 -1 -281 122 -294
342 -3 54 -9 77 -20 83 -9 5 -16 8 -16 6 -1 -7 -51 -335 -57 -370 -5 -33 -3
-38 13 -38 13 0 24 11 31 30 6 16 18 33 26 36 8 3 43 -14 80 -39 96 -66 151
-82 282 -82 127 0 181 18 248 83 52 50 74 97 87 180 25 157 -27 238 -297 464
-150 125 -189 174 -203 251 -25 132 86 248 224 234 136 -14 221 -104 246 -261
5 -33 8 -70 7 -81 -3 -29 31 -32 37 -3 4 18 44 272 50 312 0 6 -6 11 -15 13
-9 2 -20 -9 -30 -29 -20 -47 -45 -46 -114 7 -86 65 -186 90 -298 74z"/>
<path d="M4410 11605 c-80 -23 -171 -50 -202 -59 -37 -10 -58 -22 -58 -31 0
-12 11 -14 58 -9 92 10 86 22 245 -527 75 -261 137 -491 137 -510 0 -41 -17
-61 -73 -84 -23 -9 -34 -20 -31 -29 7 -18 424 101 424 122 0 11 -11 12 -49 7
-57 -8 -84 3 -105 43 -19 36 -286 961 -286 990 0 39 19 63 66 84 41 17 54 38
28 44 -5 1 -74 -17 -154 -41z"/>
<path d="M7611 11038 c-208 -238 -389 -443 -402 -455 -28 -25 -89 -53 -118
-53 -10 0 -22 -7 -25 -16 -8 -22 -8 -24 9 -24 8 0 76 -22 151 -50 75 -27 141
-47 145 -44 16 9 9 24 -14 33 -13 5 -37 21 -55 36 -26 21 -32 34 -32 63 1 51
21 84 124 206 l89 104 111 -40 c61 -22 150 -54 199 -71 l87 -30 1 -156 c1
-220 0 -233 -22 -256 -17 -17 -24 -18 -70 -9 -41 9 -52 8 -56 -3 -3 -8 -4 -15
-2 -16 15 -11 359 -130 380 -131 14 -2 81 -42 148 -90 76 -54 129 -85 138 -82
12 5 6 16 -26 51 -54 59 -54 91 -3 171 70 107 523 749 531 752 5 1 -18 -102
-49 -230 -157 -634 -220 -896 -220 -911 0 -9 6 -17 13 -17 6 0 71 40 142 90
72 49 213 145 315 215 102 69 260 178 353 241 92 63 167 112 167 109 0 -9
-541 -778 -568 -807 -31 -34 -72 -36 -124 -8 -25 13 -39 16 -44 9 -9 -15 -6
-17 183 -150 107 -76 171 -115 177 -109 7 7 -3 24 -27 48 -49 50 -48 81 1 158
74 113 524 749 550 777 36 38 62 42 110 18 47 -24 62 -26 62 -8 0 6 -55 50
-121 96 l-120 84 -42 -30 c-63 -45 -778 -537 -811 -558 l-29 -19 5 29 c4 23
224 884 254 991 5 18 -11 33 -106 100 -62 44 -118 83 -126 89 -9 6 -17 6 -24
-1 -8 -8 1 -23 30 -51 47 -47 49 -63 15 -121 -62 -108 -562 -807 -590 -824
-38 -23 -52 -23 -99 2 -22 10 -43 17 -48 14 -13 -8 -58 35 -70 66 -8 20 -36
928 -38 1193 0 44 -3 57 -15 57 -8 0 -185 -195 -394 -432z m268 -120 l2 -188
-128 46 c-70 25 -150 54 -178 64 -31 11 -50 23 -49 32 1 9 77 102 170 209
l169 193 6 -84 c3 -47 6 -169 8 -272z"/>
<path d="M3383 11209 c-277 -135 -383 -192 -383 -204 0 -12 5 -15 18 -10 80
33 111 29 146 -18 31 -43 442 -884 450 -923 6 -25 2 -37 -19 -62 -14 -17 -35
-34 -45 -37 -11 -4 -20 -15 -20 -26 0 -10 2 -19 3 -19 5 0 801 391 807 396 2
3 -4 17 -13 32 -10 15 -46 82 -80 150 -76 151 -105 157 -63 12 34 -119 10
-208 -72 -262 -57 -38 -232 -124 -268 -132 -55 -12 -78 19 -191 251 -57 116
-103 216 -103 220 0 5 29 23 65 41 113 55 183 38 245 -58 30 -47 52 -61 64
-42 3 5 -5 24 -17 43 -12 19 -62 116 -112 216 -70 142 -93 180 -104 174 -12
-8 -12 -18 2 -68 31 -110 20 -166 -42 -205 -43 -28 -120 -63 -125 -57 -2 2
-52 100 -110 218 -67 136 -106 226 -106 246 0 43 24 62 160 130 131 66 203 80
258 51 29 -15 132 -138 132 -157 0 -11 11 -11 28 0 11 6 7 19 -16 62 -17 30
-45 90 -63 134 -18 44 -35 83 -38 86 -3 4 -178 -78 -388 -182z"/>
<path d="M2425 10552 c-115 -39 -173 -77 -389 -256 -105 -87 -202 -167 -215
-177 -17 -14 -21 -23 -14 -30 8 -8 24 -3 57 16 56 33 78 29 128 -22 63 -66
619 -737 635 -767 18 -35 11 -66 -26 -109 -21 -23 -27 -37 -21 -47 7 -12 15
-9 42 16 18 18 107 93 198 169 91 75 189 165 219 198 73 85 128 200 143 303
28 193 -63 402 -252 577 -158 146 -327 190 -505 129z m205 -109 c60 -29 96
-58 180 -142 160 -161 257 -316 282 -449 21 -115 -26 -233 -140 -350 -86 -88
-141 -110 -190 -76 -25 17 -606 710 -648 771 -43 64 -25 110 68 176 92 66 127
84 188 102 85 23 169 13 260 -32z"/>
<path d="M5966 9948 c-109 -904 -226 -1546 -362 -1987 -272 -877 -696 -1323
-1529 -1608 -436 -148 -1166 -287 -2102 -399 -128 -16 -233 -31 -233 -34 0 -3
105 -18 233 -34 903 -109 1545 -226 1986 -362 913 -283 1362 -732 1645 -1645
136 -441 253 -1083 362 -1986 16 -128 31 -233 34 -233 3 0 18 105 34 232 109
904 226 1546 362 1987 224 724 540 1134 1099 1427 477 250 1247 426 2533 580
127 16 232 31 232 34 0 3 -105 18 -232 34 -904 109 -1546 226 -1987 362 -724
224 -1134 540 -1427 1099 -250 477 -426 1247 -580 2533 -16 127 -31 232 -34
232 -3 0 -18 -105 -34 -232z"/>
<path d="M10246 10022 c-3 -5 7 -31 20 -59 24 -48 25 -53 10 -81 -16 -31 -727
-620 -800 -663 -44 -26 -71 -21 -116 21 -22 21 -36 28 -43 21 -7 -7 -7 -14 0
-23 5 -7 67 -84 138 -170 98 -121 131 -156 141 -147 10 8 8 18 -12 46 -25 38
-30 73 -14 103 8 15 359 310 397 333 8 5 20 -4 33 -25 17 -27 20 -44 16 -88
-5 -59 -157 -552 -177 -576 -16 -19 -23 -18 -57 11 -23 19 -32 22 -40 12 -7
-9 23 -52 108 -155 65 -79 121 -144 124 -144 26 1 29 10 17 40 -23 56 -15 121
48 352 34 124 76 277 93 340 17 63 36 120 42 127 8 8 92 12 286 15 l276 3 67
-34 c40 -21 71 -31 76 -25 13 13 -209 278 -221 266 -6 -6 -4 -21 6 -40 33 -64
15 -101 -59 -121 -22 -6 -128 -14 -237 -17 -223 -8 -265 -1 -325 51 -32 28
-36 35 -25 48 8 9 89 77 182 152 198 160 215 167 277 111 28 -25 43 -32 50
-25 8 8 -28 59 -125 179 -76 93 -140 169 -144 169 -4 1 -9 -3 -12 -7z"/>
<path d="M1134 9265 c-99 -130 -129 -177 -120 -184 9 -8 22 -1 46 24 38 39 72
45 120 20 48 -25 783 -574 807 -603 28 -33 29 -66 3 -115 -24 -44 -24 -47 -6
-47 8 0 134 161 280 357 l266 357 -63 39 c-34 22 -99 68 -145 104 -77 59 -102
69 -102 41 0 -6 25 -36 56 -67 66 -66 104 -135 104 -188 0 -53 -45 -141 -127
-248 -71 -92 -100 -113 -146 -101 -29 7 -812 586 -839 620 -27 34 -28 53 -3
103 22 43 24 63 7 63 -4 0 -66 -79 -138 -175z"/>
<path d="M11084 8907 c-3 -8 0 -26 6 -41 16 -44 12 -81 -13 -104 -26 -25 -889
-451 -929 -459 -46 -9 -76 5 -100 47 -24 42 -35 49 -44 27 -2 -7 83 -191 191
-410 l195 -397 62 36 c35 20 102 54 151 77 79 38 101 57 79 71 -4 2 -32 -4
-62 -14 -136 -46 -221 -33 -284 43 -47 57 -146 262 -146 302 0 20 8 39 23 52
21 20 446 237 452 231 1 -2 16 -30 33 -63 40 -82 46 -115 28 -159 -18 -43 -26
-52 -88 -94 -27 -18 -48 -37 -48 -43 0 -22 31 -19 71 7 38 23 344 177 372 187
6 2 7 9 1 19 -8 14 -14 14 -64 -3 -123 -40 -182 -17 -236 91 -18 36 -32 68
-31 72 1 4 98 54 216 112 240 119 274 128 310 78 36 -50 129 -250 136 -291 11
-66 -20 -121 -104 -182 -65 -47 -80 -66 -65 -81 3 -3 25 5 49 18 24 14 85 43
137 65 51 22 94 42 96 43 4 5 -376 776 -383 776 -3 0 -8 -6 -11 -13z"/>
<path d="M622 8346 c3 -15 35 -48 537 -561 289 -295 331 -347 331 -416 0 -15
6 -29 13 -32 18 -7 149 283 135 298 -7 7 -15 2 -26 -15 -78 -118 -137 -106
-297 58 -52 53 -95 102 -95 109 0 6 37 94 82 194 l82 182 137 -7 c181 -9 229
-15 257 -33 24 -15 26 -33 10 -118 -2 -12 3 -21 15 -23 9 -2 17 2 17 10 0 7
35 90 79 185 58 128 75 173 65 177 -8 3 -25 -5 -38 -19 -13 -13 -41 -27 -62
-31 -21 -4 -299 7 -618 25 -674 36 -628 35 -624 17z m453 -161 c121 -8 230
-15 243 -15 12 0 22 -6 22 -13 0 -14 -137 -326 -149 -339 -7 -8 -381 362 -381
375 0 9 8 9 265 -8z"/>
<path d="M11588 7705 c5 -60 -3 -77 -49 -101 -32 -16 -911 -271 -967 -280 -46
-7 -85 20 -103 71 -11 30 -38 49 -40 28 0 -5 26 -101 58 -216 45 -160 61 -206
73 -204 8 2 14 9 12 16 -11 52 -5 103 15 123 16 15 150 58 500 159 263 76 492
139 510 139 50 0 64 -10 87 -61 15 -34 25 -46 34 -40 19 11 -96 421 -119 421
-13 0 -15 -10 -11 -55z"/>
<path d="M305 7648 c-51 -308 -50 -298 -32 -298 7 0 20 23 30 50 36 102 94
104 280 11 223 -111 572 -292 582 -302 5 -6 5 -9 -2 -9 -6 0 -194 -27 -417
-60 -224 -33 -420 -60 -436 -60 -48 0 -73 33 -67 86 4 36 2 44 -12 44 -14 0
-21 -29 -44 -167 -15 -93 -30 -178 -33 -190 -5 -18 -2 -23 12 -23 11 0 25 9
31 20 20 31 61 47 167 64 l100 15 140 -73 c78 -40 214 -111 303 -157 90 -46
159 -86 155 -90 -9 -8 -815 -129 -858 -129 -39 0 -64 27 -64 69 0 26 -4 32
-17 29 -12 -2 -19 -14 -21 -33 -2 -17 -14 -93 -27 -171 -14 -77 -25 -146 -25
-152 0 -22 25 -12 42 17 9 16 31 37 49 47 20 10 181 40 398 75 202 33 462 75
580 94 188 30 246 45 230 58 -11 11 -145 80 -467 242 -194 98 -351 179 -349
181 2 2 197 35 433 74 513 84 484 79 484 94 0 7 -150 88 -332 181 -739 373
-747 378 -769 457 -12 47 -36 50 -44 6z"/>
<path d="M11725 7004 c-38 -8 -113 -18 -165 -22 -75 -5 -95 -10 -98 -23 -2
-13 12 -17 90 -23 51 -3 110 -11 131 -17 48 -13 103 -68 117 -116 12 -45 32
-185 26 -190 -10 -10 -1049 -112 -1078 -106 -18 3 -40 10 -49 14 -17 9 -49 88
-49 121 0 10 -7 18 -15 18 -19 0 -19 -6 5 -235 27 -265 29 -275 46 -275 11 0
14 15 14 63 0 70 14 98 57 116 30 12 1071 123 1084 115 4 -2 10 -41 14 -87 15
-178 -39 -243 -237 -287 -47 -11 -58 -17 -58 -33 0 -17 5 -19 38 -13 20 3 101
11 180 18 l143 12 -6 40 c-6 44 -95 905 -95 918 0 10 -7 9 -95 -8z"/>
<path d="M4510 1178 c-25 -13 -55 -39 -68 -58 -20 -30 -23 -45 -20 -101 5 -86
30 -120 151 -201 143 -95 177 -133 177 -200 0 -77 -68 -134 -150 -126 -84 8
-129 59 -155 173 -6 28 -16 49 -21 48 -14 -4 -17 -233 -3 -233 6 0 13 9 16 20
7 25 16 25 72 -2 167 -81 351 25 326 188 -10 67 -52 114 -177 197 -138 91
-159 112 -165 169 -6 59 22 103 76 119 85 25 167 -22 191 -111 7 -25 14 -51
16 -57 2 -7 8 -13 14 -13 6 0 10 38 10 100 0 60 -4 100 -10 100 -5 0 -10 -7
-10 -15 0 -27 -26 -27 -79 -1 -65 33 -130 34 -191 4z"/>
<path d="M6716 1185 c-135 -48 -186 -237 -100 -368 70 -106 235 -99 292 13
l22 44 0 -54 c0 -143 -44 -274 -102 -310 -36 -22 -82 -26 -123 -10 l-26 10 22
29 c17 23 19 32 10 50 -16 30 -57 38 -81 16 -28 -26 -26 -69 6 -94 98 -77 250
-40 322 79 93 155 92 422 -1 535 -56 68 -152 92 -241 60z m141 -27 c24 -20 51
-86 62 -156 19 -116 -39 -227 -124 -239 -85 -11 -132 78 -123 232 6 89 23 132
65 165 31 24 90 23 120 -2z"/>
<path d="M7386 1185 c-135 -48 -186 -237 -100 -368 70 -106 235 -99 292 13
l22 44 0 -54 c0 -143 -44 -274 -102 -310 -36 -22 -82 -26 -123 -10 l-26 10 22
29 c17 23 19 32 10 50 -16 30 -57 38 -81 16 -28 -26 -26 -69 6 -94 98 -77 250
-40 322 79 93 155 92 422 -1 535 -56 68 -152 92 -241 60z m141 -27 c24 -20 51
-86 62 -156 19 -116 -39 -227 -124 -239 -85 -11 -132 78 -123 232 6 89 23 132
65 165 31 24 90 23 120 -2z"/>
<path d="M8056 1185 c-135 -48 -186 -237 -100 -368 70 -106 235 -99 292 13
l22 44 0 -54 c0 -143 -44 -274 -102 -310 -36 -22 -82 -26 -123 -10 l-26 10 22
29 c17 23 19 32 10 50 -16 30 -57 38 -81 16 -28 -26 -26 -69 6 -94 98 -77 250
-40 322 79 93 155 92 422 -1 535 -56 68 -152 92 -241 60z m141 -27 c24 -20 51
-86 62 -156 19 -116 -39 -227 -124 -239 -85 -11 -132 78 -123 232 6 89 23 132
65 165 31 24 90 23 120 -2z"/>
<path d="M3650 1180 c0 -5 11 -10 24 -10 55 0 56 -5 56 -335 0 -330 -1 -335
-56 -335 -13 0 -24 -4 -24 -10 0 -6 94 -10 261 -10 l262 0 -7 31 c-3 17 -6 62
-6 100 0 77 -14 92 -24 27 -18 -114 -57 -140 -199 -136 -117 4 -117 3 -117
191 l0 137 45 0 c79 0 115 -32 115 -100 0 -18 5 -30 13 -30 10 0 13 31 13 140
-1 96 -4 140 -12 140 -6 0 -14 -18 -18 -41 -10 -61 -43 -89 -106 -89 l-50 0 0
133 c0 87 5 141 13 157 12 24 16 25 119 25 128 0 142 -8 160 -96 7 -33 16 -59
20 -59 4 0 8 26 8 59 0 32 3 73 6 90 l7 31 -252 0 c-161 0 -251 -4 -251 -10z"/>
<path d="M5053 1085 c1 -76 5 -105 15 -105 6 0 12 12 12 26 0 48 22 112 46
135 19 18 39 24 89 27 l65 4 0 -320 c0 -320 0 -321 -22 -336 -12 -9 -35 -16
-50 -16 -16 0 -28 -4 -28 -10 0 -6 57 -10 150 -10 93 0 150 4 150 10 0 6 -12
10 -28 10 -15 0 -38 7 -50 16 -22 15 -22 16 -22 336 l0 320 65 -4 c86 -5 113
-30 129 -119 7 -34 17 -64 24 -67 9 -3 12 24 12 102 l0 106 -279 0 -280 0 2
-105z"/>
<path d="M6258 1179 c-10 -5 -49 -18 -88 -28 -39 -10 -72 -22 -73 -27 -1 -5
16 -10 38 -12 76 -6 75 -1 75 -308 0 -271 0 -273 -22 -288 -12 -9 -35 -16 -50
-16 -16 0 -28 -4 -28 -10 0 -6 52 -10 135 -10 83 0 135 4 135 10 0 6 -11 10
-24 10 -54 0 -56 16 -56 367 0 338 0 337 -42 312z"/>
<path d="M5780 580 c-39 -39 -11 -110 44 -110 25 0 66 41 66 65 0 7 -9 24 -21
39 -25 31 -61 34 -89 6z"/>
</g>
</svg>
