<?xml version="1.0" standalone="no"?>
<!DOCTYPE svg PUBLIC "-//W3C//DTD SVG 20010904//EN"
 "http://www.w3.org/TR/2001/REC-SVG-20010904/DTD/svg10.dtd">
<svg version="1.0" xmlns="http://www.w3.org/2000/svg"
 width="1200.000000pt" height="1200.000000pt" viewBox="0 0 1200.000000 1200.000000"
 preserveAspectRatio="xMidYMid meet">

<g transform="translate(0.000000,1200.000000) scale(0.100000,-0.100000)"
fill="#595959" stroke="none">
<path d="M8381 8507 c-2 -62 -40 -238 -62 -283 -28 -59 -84 -111 -144 -133
-28 -11 -103 -28 -166 -39 -103 -18 -110 -20 -74 -26 226 -40 265 -52 323
-101 58 -49 93 -142 116 -315 l12 -85 8 65 c10 92 42 223 65 269 11 21 35 51
53 66 58 49 97 61 323 101 36 6 29 8 -74 26 -160 27 -210 48 -265 110 -52 57
-67 98 -91 250 -21 135 -22 140 -24 95z"/>
<path d="M2725 7390 c-16 -4 -72 -8 -122 -9 -72 -1 -93 -4 -93 -15 0 -8 15
-17 33 -20 19 -3 45 -18 58 -32 l24 -26 0 -533 c0 -600 4 -567 -76 -580 -24
-4 -39 -12 -39 -21 0 -12 34 -14 195 -14 159 0 195 3 195 14 0 8 -15 16 -38
19 -52 9 -72 26 -82 72 -5 22 -10 291 -10 598 0 306 -3 556 -7 556 -5 -1 -21
-5 -38 -9z"/>
<path d="M3645 7390 c-16 -4 -72 -8 -122 -9 -72 -1 -93 -4 -93 -15 0 -8 15
-17 33 -20 19 -3 45 -18 58 -32 23 -25 24 -30 27 -222 1 -140 -1 -192 -8 -180
-20 33 -98 70 -159 75 -144 13 -276 -68 -341 -209 -32 -67 -34 -82 -38 -193
-6 -181 24 -291 103 -370 59 -58 115 -79 215 -80 98 0 145 19 198 80 l32 36 0
-62 c0 -59 1 -61 23 -55 12 3 73 6 135 6 93 0 112 3 112 15 0 8 -7 15 -16 15
-30 0 -81 31 -93 56 -8 18 -11 191 -11 599 0 454 -3 575 -12 574 -7 -1 -26 -5
-43 -9z m-176 -455 c17 -8 42 -32 56 -52 l25 -38 0 -258 c0 -234 -2 -261 -19
-295 -90 -175 -299 -139 -356 61 -37 129 -29 362 16 467 24 55 83 117 125 130
38 12 115 5 153 -15z"/>
<path d="M9315 7390 c-16 -4 -72 -8 -122 -9 -73 -1 -93 -4 -93 -15 0 -8 16
-18 37 -23 21 -5 45 -20 57 -36 21 -28 21 -38 23 -545 2 -400 0 -523 -10 -542
-8 -17 -28 -30 -60 -40 -26 -8 -47 -21 -47 -27 0 -10 44 -13 185 -13 151 0
185 3 185 14 0 8 -15 17 -35 20 -62 12 -70 36 -73 228 l-4 168 29 0 c16 0 38
-7 50 -15 25 -17 233 -317 240 -346 4 -13 -3 -22 -21 -30 -14 -7 -26 -18 -26
-26 0 -10 32 -13 155 -13 125 0 155 3 155 14 0 7 -14 19 -30 26 -17 7 -46 31
-64 54 -53 65 -306 417 -306 426 0 5 54 65 121 134 99 103 130 129 170 143 27
10 49 23 49 30 0 10 -38 13 -160 13 -130 0 -160 -3 -160 -14 0 -8 16 -17 37
-21 57 -10 73 -22 73 -54 0 -50 -169 -235 -242 -266 -73 -30 -68 -59 -68 380
0 217 -3 394 -7 394 -5 -1 -21 -5 -38 -9z"/>
<path d="M4865 7361 c-62 -26 -82 -116 -36 -165 32 -34 80 -42 119 -22 38 20
52 44 52 91 0 47 -13 71 -50 90 -32 16 -55 18 -85 6z"/>
<path d="M10915 7361 c-62 -26 -82 -116 -36 -165 32 -34 80 -42 119 -22 38 20
52 44 52 91 0 47 -13 71 -50 90 -32 16 -55 18 -85 6z"/>
<path d="M280 7268 c0 -7 15 -20 33 -28 17 -8 42 -30 54 -48 12 -18 59 -146
106 -285 188 -562 260 -767 271 -767 7 0 65 168 135 393 68 215 126 398 130
404 4 7 69 -170 146 -392 83 -243 143 -405 151 -405 7 0 26 44 44 103 191 614
283 895 304 930 13 24 41 52 60 62 69 37 49 45 -114 45 -123 0 -150 -3 -150
-14 0 -9 16 -17 42 -21 23 -4 52 -18 66 -32 21 -22 24 -31 20 -81 -4 -52 -200
-695 -217 -715 -9 -9 -252 739 -251 774 0 34 19 49 70 56 24 4 40 11 40 19 0
11 -34 14 -180 14 -191 0 -213 -6 -150 -42 34 -19 60 -72 87 -173 l17 -63 -95
-296 c-52 -162 -97 -296 -100 -296 -11 0 -249 746 -249 782 0 33 4 38 35 49
19 7 35 19 35 26 0 10 -37 13 -170 13 -129 0 -170 -3 -170 -12z"/>
<path d="M11440 7233 c-86 -9 -80 1 -80 -133 l0 -120 -80 0 c-64 0 -80 -3 -80
-15 0 -12 16 -15 80 -15 l80 0 0 -318 c0 -362 5 -398 65 -451 64 -56 178 -66
251 -21 55 35 122 173 92 191 -8 5 -23 -16 -44 -59 -34 -71 -71 -102 -119
-102 -41 0 -82 26 -94 61 -7 21 -11 147 -11 365 l0 334 120 0 c100 0 120 3
120 15 0 13 -20 15 -120 15 l-120 0 0 130 c0 98 -3 130 -12 128 -7 0 -29 -3
-48 -5z"/>
<path d="M4935 6990 c-16 -4 -72 -8 -122 -9 -72 -1 -93 -4 -93 -15 0 -8 15
-17 33 -20 19 -3 45 -18 58 -32 l24 -26 3 -327 c3 -317 2 -328 -18 -353 -13
-17 -34 -29 -60 -33 -25 -4 -40 -12 -40 -21 0 -12 34 -14 195 -14 161 0 195 2
195 14 0 9 -15 17 -40 21 -25 4 -47 16 -60 32 -19 25 -20 41 -20 409 0 301 -3
384 -12 383 -7 -1 -26 -5 -43 -9z"/>
<path d="M10985 6990 c-16 -4 -72 -8 -122 -9 -72 -1 -93 -4 -93 -15 0 -8 15
-17 33 -20 19 -3 45 -18 58 -32 l24 -26 3 -327 c3 -317 2 -328 -18 -353 -13
-17 -34 -29 -60 -33 -25 -4 -40 -12 -40 -21 0 -12 34 -14 195 -14 161 0 195 2
195 14 0 9 -15 17 -40 21 -25 4 -47 16 -60 32 -19 25 -20 41 -20 409 0 301 -3
384 -12 383 -7 -1 -26 -5 -43 -9z"/>
<path d="M1965 6977 c-111 -29 -195 -97 -195 -158 0 -36 23 -84 45 -93 67 -25
135 15 135 80 0 29 -7 44 -35 70 l-36 33 24 16 c58 38 151 46 206 17 56 -28
71 -57 77 -152 10 -138 -1 -150 -193 -221 -198 -72 -257 -128 -257 -242 1
-130 83 -197 225 -184 75 7 136 35 184 86 l39 41 11 -41 c22 -90 137 -117 237
-56 27 16 35 26 29 36 -7 11 -13 11 -32 -3 -32 -22 -76 -21 -89 3 -6 12 -10
124 -10 293 0 150 -5 293 -11 318 -24 108 -94 159 -227 166 -44 2 -98 -2 -127
-9z m225 -507 l0 -150 -40 -44 c-67 -73 -144 -95 -210 -61 -52 27 -79 106 -60
174 18 67 64 109 177 163 56 26 105 52 108 58 19 31 25 -3 25 -140z"/>
<path d="M4207 6980 c-171 -44 -277 -210 -277 -436 0 -139 42 -246 125 -323
71 -64 133 -86 245 -86 100 0 155 22 220 88 35 35 80 103 80 122 0 15 -39 2
-45 -14 -11 -35 -85 -99 -132 -115 -166 -57 -306 56 -333 268 -5 42 -7 97 -3
121 l6 45 248 0 249 0 0 42 c0 116 -72 236 -162 273 -51 20 -168 28 -221 15z
m133 -35 c16 -8 38 -28 49 -44 24 -34 51 -130 51 -183 l0 -38 -176 0 -177 0 7
43 c27 174 140 277 246 222z"/>
<path d="M5318 6983 c-120 -3 -128 -5 -128 -23 0 -13 7 -20 20 -20 33 0 71
-23 86 -51 11 -23 14 -90 14 -347 0 -317 0 -319 -22 -339 -13 -12 -40 -24 -60
-28 -23 -4 -38 -13 -38 -21 0 -11 34 -14 185 -14 148 0 185 3 185 13 0 8 -17
19 -39 25 -60 18 -63 33 -59 318 3 237 4 252 27 301 27 62 83 115 136 133 47
15 120 8 145 -15 40 -37 45 -76 45 -385 0 -333 -2 -343 -70 -356 -20 -3 -35
-12 -35 -20 0 -11 34 -14 185 -14 153 0 185 2 185 14 0 9 -15 17 -39 21 -76
13 -75 9 -81 354 -5 296 -6 308 -28 354 -31 61 -89 97 -170 104 -115 11 -211
-37 -274 -136 l-28 -45 0 92 c0 51 -3 91 -7 90 -5 -1 -65 -4 -135 -5z"/>
<path d="M6342 6971 c-57 -20 -96 -50 -118 -93 -16 -31 -19 -134 -5 -171 18
-47 77 -101 188 -174 135 -87 189 -139 199 -187 21 -113 -59 -198 -172 -182
-100 13 -143 63 -177 205 -17 72 -25 91 -39 91 -16 0 -18 -14 -18 -160 0 -138
2 -160 16 -160 8 0 20 14 25 30 6 17 15 30 20 30 5 0 35 -15 67 -32 53 -31 64
-33 147 -33 133 1 216 42 256 130 35 75 20 167 -38 235 -19 22 -87 75 -151
117 -170 111 -200 137 -212 182 -13 50 5 106 43 135 39 28 138 29 185 1 41
-25 81 -85 103 -155 10 -33 23 -56 33 -58 14 -3 16 9 16 86 0 49 3 110 6 136
6 41 5 46 -13 46 -13 0 -22 -10 -28 -32 -12 -40 -36 -46 -71 -19 -34 27 -116
51 -168 51 -23 -1 -65 -9 -94 -19z"/>
<path d="M7115 6975 c-27 -8 -53 -14 -56 -15 -3 0 -27 -14 -53 -31 -53 -36
-76 -72 -76 -124 0 -102 151 -118 176 -19 8 33 -18 90 -45 99 -29 9 -26 22 11
45 69 42 178 37 232 -10 31 -28 31 -30 34 -133 2 -65 -1 -113 -7 -126 -14 -26
-48 -44 -167 -87 -164 -59 -223 -98 -255 -169 -49 -108 5 -229 113 -256 102
-24 216 8 280 79 l37 41 11 -37 c14 -55 47 -81 108 -89 76 -9 177 34 157 67
-4 7 -14 5 -28 -5 -26 -18 -71 -20 -85 -2 -6 7 -12 127 -15 312 -2 189 -8 313
-16 336 -17 55 -87 114 -150 128 -68 14 -144 13 -206 -4z m225 -510 l0 -154
-32 -37 c-116 -132 -294 -74 -275 89 11 92 42 121 217 211 47 23 86 44 88 44
1 1 2 -68 2 -153z"/>
<path d="M7803 6982 c-115 -2 -123 -4 -123 -22 0 -13 7 -20 20 -20 37 0 77
-28 89 -61 7 -21 11 -140 11 -339 0 -292 -1 -309 -20 -333 -13 -16 -35 -28
-60 -32 -25 -4 -40 -12 -40 -21 0 -12 32 -14 185 -14 150 0 185 3 185 14 0 7
-13 16 -30 19 -16 4 -39 16 -50 27 -19 19 -20 32 -20 268 0 275 6 316 60 389
71 96 213 112 258 29 15 -27 17 -73 20 -331 3 -272 1 -303 -15 -335 -14 -26
-27 -37 -55 -44 -21 -5 -38 -15 -38 -23 0 -10 38 -13 185 -13 141 0 185 3 185
13 0 6 -21 19 -47 27 -73 23 -74 27 -71 315 3 229 5 254 24 295 43 93 116 149
194 150 49 0 82 -20 102 -60 16 -31 18 -69 18 -337 0 -209 -4 -310 -12 -328
-7 -16 -25 -29 -50 -37 -21 -6 -38 -17 -38 -25 0 -10 37 -13 185 -13 150 0
185 3 185 14 0 8 -16 16 -40 20 -51 8 -76 36 -84 93 -3 25 -6 163 -6 307 0
291 -5 315 -69 369 -97 81 -285 49 -367 -63 -19 -25 -34 -51 -34 -57 0 -30
-18 -10 -24 27 -9 58 -67 114 -136 130 -129 31 -260 -30 -312 -146 -12 -26
-13 -21 -18 61 -3 48 -9 89 -15 89 -5 1 -65 0 -132 -2z"/>
<path d="M10257 6980 c-171 -44 -277 -210 -277 -436 0 -139 42 -246 125 -323
71 -64 133 -86 245 -86 100 0 155 22 220 88 35 35 80 103 80 122 0 15 -39 2
-45 -14 -11 -35 -85 -99 -132 -115 -166 -57 -306 56 -333 268 -5 42 -7 97 -3
121 l6 45 248 0 249 0 0 42 c0 116 -72 236 -162 273 -51 20 -168 28 -221 15z
m133 -35 c16 -8 38 -28 49 -44 24 -34 51 -130 51 -183 l0 -38 -176 0 -177 0 7
43 c27 174 140 277 246 222z"/>
</g>
</svg>
